<svg xmlns="http://www.w3.org/2000/svg" xmlns:xlink="http://www.w3.org/1999/xlink" xmlns:xodm="http://www.corel.com/coreldraw/odm/2003" xml:space="preserve" version="1.1" style="shape-rendering:geometricPrecision;text-rendering:geometricPrecision;image-rendering:optimizeQuality;" viewBox="0 0 8.4666 10.58325" x="0px" y="0px" fill-rule="evenodd" clip-rule="evenodd"><defs><style type="text/css">
   
    .fil0 {fill:black;fill-rule:nonzero}
   
  </style></defs><g><path class="fil0" d="M2.2027 1.6922c-0.0701,0 -0.127,-0.0569 -0.127,-0.127 0,-0.0701 0.0569,-0.127 0.127,-0.127l2.7853 0c0.0701,0 0.127,0.0569 0.127,0.127 0,0.0701 -0.0569,0.127 -0.127,0.127l-2.7853 0zm4.9967 0.2057l0.0002 0.0061 -0.0001 0.0049 0.0001 6.0084c0,0.0701 -0.0569,0.127 -0.127,0.127l-5.6786 0c-0.0701,0 -0.127,-0.0569 -0.127,-0.127l0 -7.3679c0,-0.0701 0.0569,-0.127 0.127,-0.127l4.324 0c0.0351,0 0.0668,0.0142 0.0898,0.0372l1.3546 1.3546 0.0012 0.0012 0.0009 0.001 0.0002 0.0001 0.0011 0.0012 0.0008 0.0009 0.0003 0.0003 0.0011 0.0012 0.0006 0.0008 0.0004 0.0004 0.0011 0.0013 0.0005 0.0006 0.0005 0.0006 0.001 0.0013 0.0004 0.0005 0.0006 0.0007 0.001 0.0013 0.0003 0.0004 0.0006 0.0009 0.001 0.0013 0.0002 0.0003 0.0007 0.001 0.0009 0.0013 0.0001 0.0002 0.0008 0.0011 0.0008 0.0013 0.0001 0.0002 0.0016 0.0025 0 0.0001 0.0008 0.0012 0.0008 0.0014 0.0015 0.0027 0.0007 0.0014 0.0007 0.0013 0.0001 0.0001 0.0006 0.0014 0.0007 0.0013 0 0.0001 0.0007 0.0014 0.0006 0.0013 0 0.0001 0.0007 0.0014 0.0005 0.0013 0.0001 0.0001 0.0006 0.0015 0.0005 0.0012 0 0.0002 0.0006 0.0015 0.0005 0.0012 0 0.0002 0.0005 0.0015 0.0005 0.0013 0 0.0001 0.0005 0.0015 0.0005 0.0013 0 0.0001 0.0004 0.0015 0.0012 0.0045 0.0001 0 0.0003 0.0014 0.0003 0.0015 0.0001 0.0001 0.0003 0.0014 0.0003 0.0015 0.0001 0.0002 0.0002 0.0013 0.0003 0.0015 0.0001 0.0003 0.0001 0.0012 0.0003 0.0015 0.0001 0.0005 0.0001 0.0011 0.0004 0.003 0.0002 0.0015 0.0001 0.0007 0 0.0008 0.0002 0.0015 0.0001 0.0009 0 0.0007 0.0001 0.0015 0.0001 0.0011 0 0.0004zm-0.2538 0.1331l-1.245 0c-0.0701,0 -0.127,-0.0569 -0.127,-0.127l0 -1.2276 -4.0526 0 0 7.1139 5.4246 0 0 -5.7593zm-1.118 -1.1924l0 0.9384 0.9384 0 -0.9384 -0.9384zm-3.6249 6.1897c-0.0701,0 -0.127,-0.0569 -0.127,-0.127 0,-0.0701 0.0569,-0.127 0.127,-0.127l4.0612 0c0.0701,0 0.127,0.0569 0.127,0.127 0,0.0701 -0.0569,0.127 -0.127,0.127l-4.0612 0zm0 -1.1858c-0.0701,0 -0.127,-0.0569 -0.127,-0.127 0,-0.0701 0.0569,-0.127 0.127,-0.127l4.0612 0c0.0701,0 0.127,0.0569 0.127,0.127 0,0.0701 -0.0569,0.127 -0.127,0.127l-4.0612 0zm0 -1.1011c-0.0701,0 -0.127,-0.0569 -0.127,-0.127 0,-0.0701 0.0569,-0.127 0.127,-0.127l4.0612 0c0.0701,0 0.127,0.0569 0.127,0.127 0,0.0701 -0.0569,0.127 -0.127,0.127l-4.0612 0zm0 -1.0164c-0.0701,0 -0.127,-0.0569 -0.127,-0.127 0,-0.0701 0.0569,-0.127 0.127,-0.127l4.0612 0c0.0701,0 0.127,0.0569 0.127,0.127 0,0.0701 -0.0569,0.127 -0.127,0.127l-4.0612 0zm0 -1.0164c-0.0701,0 -0.127,-0.0569 -0.127,-0.127 0,-0.0701 0.0569,-0.127 0.127,-0.127l4.0612 0c0.0701,0 0.127,0.0569 0.127,0.127 0,0.0701 -0.0569,0.127 -0.127,0.127l-4.0612 0z"/></g><text x="0" y="23.4666" fill="#000000" font-size="5px" font-weight="bold" font-family="'Helvetica Neue', Helvetica, Arial-Unicode, Arial, Sans-serif">Created by Danang Marhendra</text><text x="0" y="28.4666" fill="#000000" font-size="5px" font-weight="bold" font-family="'Helvetica Neue', Helvetica, Arial-Unicode, Arial, Sans-serif">from the Noun Project</text></svg>