<svg xmlns="http://www.w3.org/2000/svg" xmlns:xlink="http://www.w3.org/1999/xlink" version="1.1" x="0px" y="0px" viewBox="0 0 50 62.5" enable-background="new 0 0 50 50" xml:space="preserve"><g><path fill-rule="evenodd" clip-rule="evenodd" d="M28.364,20.836l-2.49-3.051l0.028-11.177l0.893-0.305l12.411,2.699l7.648,11.041   l-4.933,19.178l-11.159,4.583l-5.605-0.05L30.9,37.54l-5.01-11.085L28.364,20.836z M14.146,10.62l8.848-3.02l-0.028,11.22   l2.015,2.47L22.7,26.468l4.752,10.513l-6.22,6.733l-7.46-4.011l-1.253-4.039l-4.615-1.369L5.258,24.029l8.209-7.335L14.146,10.62z    M11.457,8.46l-0.762,6.814L2.004,23.04l3.499,13.577l4.7,1.395l1.144,3.693l9.142,4.914l10.839,0.098l13.042-5.357L50,19.477   l-9.06-13.08L26.626,3.284L11.457,8.46z M6.378,40.622l-4.815-1.231L0,43.109l0.96,2.579l4.75,0.863l2.203-2.718L6.378,40.622z    M8.368,11.571L5.1,10.944l-1.913,1.49l0.483,2.255l3.115,0.83l1.372-1.275L8.368,11.571z"/></g><text x="0" y="65" fill="#000000" font-size="5px" font-weight="bold" font-family="'Helvetica Neue', Helvetica, Arial-Unicode, Arial, Sans-serif">Created by Georgiana Ionescu</text><text x="0" y="70" fill="#000000" font-size="5px" font-weight="bold" font-family="'Helvetica Neue', Helvetica, Arial-Unicode, Arial, Sans-serif">from the Noun Project</text></svg>