<svg xmlns="http://www.w3.org/2000/svg" viewBox="0 0 96 120" x="0px" y="0px"><g data-name="1"><path d="M30.92,82.6A8.56,8.56,0,1,0,22.36,74,8.56,8.56,0,0,0,30.92,82.6Zm0-13.12A4.56,4.56,0,1,1,26.36,74,4.56,4.56,0,0,1,30.92,69.48ZM16,74A14.88,14.88,0,0,0,45.8,74a14.74,14.74,0,0,0-4.52-10.67l3.28-5.67L50.72,61a2,2,0,0,0,1.69.09,1.94,1.94,0,0,0,.71-.48l1.6,2.76A14.74,14.74,0,0,0,50.2,74a14.88,14.88,0,1,0,15-14.88L57.82,46.71,68.16,14.79a2,2,0,0,0-.25-1.74L64.44,8a2,2,0,0,0-1.72-.87,2,2,0,0,0-1.65,1L48,30.12,34.93,8.06A2,2,0,0,0,31.56,8l-3.47,5.1a2,2,0,0,0-.25,1.74L38.18,46.71,30.8,59.16A14.89,14.89,0,0,0,16,74ZM62.37,62.23a2,2,0,0,0,1.89,1c.27,0,.54,0,.82,0a10.91,10.91,0,1,1-6.58,2.23A2,2,0,0,0,59,62.8l-4.1-7.09,1.27-3.93ZM32,14.49,33.1,12.8,45.68,34l-4.79,8.08ZM31.76,63.2a2,2,0,0,0,1.87-1L62.9,12.8l1.15,1.69L50.5,56.34l-5.75-3.08a2,2,0,0,0-2.68.76L37,62.8a2,2,0,0,0,.51,2.59,10.87,10.87,0,1,1-6.58-2.23C31.2,63.16,31.47,63.18,31.76,63.2ZM56.53,74a8.56,8.56,0,1,0,8.55-8.56A8.56,8.56,0,0,0,56.53,74Zm8.55-4.56A4.56,4.56,0,1,1,60.53,74,4.57,4.57,0,0,1,65.08,69.48ZM50,48H46V44h4Z"/></g><text x="0" y="111" fill="#000000" font-size="5px" font-weight="bold" font-family="'Helvetica Neue', Helvetica, Arial-Unicode, Arial, Sans-serif">Created by Ira Ramadan</text><text x="0" y="116" fill="#000000" font-size="5px" font-weight="bold" font-family="'Helvetica Neue', Helvetica, Arial-Unicode, Arial, Sans-serif">from the Noun Project</text></svg>